<?xml version="1.0" standalone="no"?>
<!DOCTYPE svg PUBLIC "-//W3C//DTD SVG 20010904//EN"
 "http://www.w3.org/TR/2001/REC-SVG-20010904/DTD/svg10.dtd">
<svg version="1.0" xmlns="http://www.w3.org/2000/svg"
 width="1001.000000pt" height="1001.000000pt" viewBox="0 0 1001.000000 1001.000000"
 preserveAspectRatio="xMidYMid meet">
<metadata>
Created by potrace 1.14, written by Peter Selinger 2001-2017
</metadata>
<g transform="translate(0.000000,1001.000000) scale(0.100000,-0.100000)"
fill="#000000" stroke="none">
<path d="M1375 8991 c-91 -26 -144 -58 -207 -123 -90 -91 -153 -239 -173 -398
-3 -25 -7 -56 -10 -70 -5 -27 -8 -44 -25 -160 -18 -127 -20 -139 -25 -167 -2
-16 -6 -41 -9 -58 -13 -83 -18 -115 -26 -165 -5 -30 -12 -71 -15 -90 -13 -80
-26 -158 -36 -205 -5 -27 -25 -135 -44 -240 -39 -210 -38 -209 -60 -315 -17
-83 -22 -109 -30 -142 -3 -13 -10 -43 -15 -68 -5 -25 -27 -121 -49 -215 -186
-783 -399 -1322 -604 -1524 l-44 -45 51 -61 c108 -127 210 -326 327 -640 29
-77 133 -399 149 -460 12 -46 59 -220 81 -305 12 -41 22 -82 24 -90 2 -8 13
-55 25 -105 12 -49 24 -101 26 -115 3 -14 16 -70 29 -125 22 -89 97 -463 126
-620 6 -33 15 -80 20 -105 5 -25 11 -57 13 -73 3 -15 7 -35 10 -45 3 -9 7 -35
11 -57 6 -42 12 -79 20 -130 8 -50 46 -288 51 -320 2 -16 6 -46 9 -65 37 -274
51 -335 106 -443 30 -58 125 -154 184 -186 115 -60 114 -60 755 -58 568 3 587
3 640 24 138 53 231 135 292 258 26 52 33 74 44 141 4 21 7 1627 8 3568 1
2603 -2 3547 -10 3597 -19 108 -77 217 -154 286 -40 36 -134 92 -187 110 -43
15 -114 17 -633 19 -530 2 -591 1 -645 -15z"/>
<path d="M4880 8991 c-172 -46 -306 -176 -356 -346 -17 -57 -18 -163 -19
-1843 0 -981 2 -1787 5 -1791 3 -4 452 -7 998 -6 873 0 993 2 996 15 2 8 3
818 2 1800 l-2 1785 -22 58 c-57 155 -156 256 -314 320 -52 21 -65 21 -638 24
-532 2 -591 0 -650 -16z"/>
<path d="M8430 9003 c-188 -31 -348 -175 -404 -362 -15 -50 -16 -368 -13
-3650 l2 -3596 24 -65 c57 -153 188 -270 351 -314 79 -21 1158 -21 1237 0 179
47 319 186 367 364 13 48 15 515 15 3630 0 3212 -1 3580 -15 3625 -57 183
-190 312 -369 359 -50 13 -145 15 -614 14 -306 0 -567 -3 -581 -5z"/>
<path d="M4525 4002 c-20 -3 -20 -8 -19 -1290 0 -989 3 -1297 13 -1332 50
-182 205 -330 386 -369 33 -7 250 -9 630 -8 520 3 584 5 623 20 181 72 295
199 335 372 11 49 14 283 13 1334 l-1 1275 -980 0 c-539 1 -989 0 -1000 -2z"/>
</g>
</svg>
